# xmcd CD database file
#
# Track frame offsets:
#	150
#	15293
#	30123
#	45315
#	63737
#	78969
#	95189
#	113047
#	135381
#	153455
#	172492
#
# Disc length: 2680 seconds
#
# Revision: 0
# Processed by: cddbd v1.5.1PL0 Copyright (c) Steve Scherf et al.
# Submitted via: CDex 1.51
#
DISCID=820a760b
DTITLE=Melissa Hill - Across and Back
DYEAR=2005
DGENRE=Jazz
TTITLE0=Shadow Dance
TTITLE1=Sunshine
TTITLE2=Across and Back
TTITLE3=Maybe
TTITLE4=I'm Bidin' My Time
TTITLE5=Wealth
TTITLE6=Alone
TTITLE7=When I Saw You
TTITLE8=Player in the Game
TTITLE9=New Bird
TTITLE10=5 am
EXTD=YEAR: 2005
EXTT0=
EXTT1=
EXTT2=
EXTT3=
EXTT4=
EXTT5=
EXTT6=
EXTT7=
EXTT8=
EXTT9=
EXTT10=
PLAYORDER=
